<?xml version="1.0" encoding="utf-8"?>
<!-- Generator: Adobe Illustrator 25.0.0, SVG Export Plug-In . SVG Version: 6.00 Build 0)  -->
<svg version="1.1" id="图层_1" xmlns="http://www.w3.org/2000/svg" xmlns:xlink="http://www.w3.org/1999/xlink" x="0px" y="0px"
	 viewBox="0 0 600.9 178.4" style="enable-background:new 0 0 600.9 178.4;" xml:space="preserve">
<style type="text/css">
	.st0{fill-rule:evenodd;clip-rule:evenodd;fill:#E1251B;}
	.st1{fill-rule:evenodd;clip-rule:evenodd;fill:#383635;}
</style>
<g>
	<path class="st0" d="M366.2,3v20.3c0,1.5-1.3,2.8-3,2.8h-31.5c-1.7,0-3,1.3-3,2.8v81.9c0,1.5-1.3,2.8-3,2.8h-21.4
		c-1.7,0-3-1.3-3-2.8v-82c0-1.5-1.3-2.8-3-2.8H267c-1.7,0-3-1.3-3-2.8V2.8c0-1.5,1.3-2.8,3-2.8h96C364.9,0.1,366.2,1.3,366.2,3
		L366.2,3z"/>
	<path class="st0" d="M535.3,87.5L535.3,87.5V3c0-1.5-1.3-2.8-3-2.8h-21.5c-1.7,0-3,1.3-3,2.8v94c0,9.2,7.8,16.7,17.6,16.7h72.4
		c1.7,0,3-1.3,3-2.8V90.4c0-1.5-1.3-2.8-3-2.8h-62.6V87.5z"/>
	<path class="st0" d="M487.8,23.3L487.8,23.3V3c0-1.5-1.3-2.8-3-2.8h-83.7c-9.6,0-17.6,7.5-17.6,16.7v80.1c0,9.2,7.8,16.7,17.6,16.7
		h83.7c1.7,0,3-1.3,3-2.8V90.3c0-1.5-1.3-2.8-3-2.8H414c-1.7,0-3-1.3-3-2.8V72.5c0-1.5,1.3-2.8,3-2.8h61.9c1.7,0,3-1.3,3-2.8V46.5
		c0-1.5-1.3-2.8-3-2.8H414c-1.7,0-3-1.3-3-2.8V28.7c0-1.5,1.3-2.8,3-2.8h70.8C486.5,26,487.8,24.9,487.8,23.3L487.8,23.3z"/>
	<path class="st0" d="M190.5,113.4L190.5,113.4c30.8-0.7,54.9-25.5,54.9-54.9V2.8c0-1.5-1.3-2.8-3-2.8h-21.5c-1.7,0-3,1.3-3,2.8
		v56.1c0,15-12.1,27.9-27.8,28.6c-16.8,0.7-30.7-11.9-30.7-27.8V2.8c0-1.5-1.3-2.8-3-2.8H135c-1.7,0-3,1.3-3,2.8v56.7
		C132.3,89.9,158.4,114.3,190.5,113.4L190.5,113.4z"/>
	<path class="st0" d="M54.9,0.1L54.9,0.1C24.1,0.8,0,25.7,0,55v55.7c0,1.5,1.3,2.8,3,2.8h21.5c1.7,0,3-1.3,3-2.8v-56
		c-0.1-15,12.1-27.9,27.7-28.6C71.9,25.4,85.8,38.1,85.8,54v56.7c0,1.5,1.3,2.8,3,2.8h21.5c1.7,0,3-1.3,3-2.8V54
		C113.1,23.7,86.9-0.8,54.9,0.1L54.9,0.1z"/>
	<path class="st0" d="M56.6,56.7c7.5,0,13.6,5.8,13.6,13c0,7.3-6.1,13-13.6,13S43,76.8,43,69.7C42.8,62.6,48.9,56.7,56.6,56.7
		L56.6,56.7z"/>
	<path class="st1" d="M155.3,164.5c5.1-1.8,8.1-5.7,8.1-11.1c0-7.4-6.2-12.1-14.9-12.1h-15.7v36.5h6.7v-11.9h8.4l9.4,11.9h8.2
		L155.3,164.5z M139.6,159.8v-12.5h8.7c4.7,0,8.4,2.4,8.4,6.2c0,3.9-3.7,6.2-8.4,6.2h-8.7V159.8z"/>
	<path class="st1" d="M195.1,140.6c-11.1,0-20,8.5-20,18.9c0,10.5,9,18.9,20,18.9c11.1,0,20-8.5,20-18.9
		C214.9,148.9,206.2,140.6,195.1,140.6z M195.1,172.4c-7.4,0-13.1-5.8-13.1-13s5.6-13,13.1-13c7.5,0,13.1,5.8,13.1,13
		S202.7,172.4,195.1,172.4z"/>
	<path class="st1" d="M254,158.8c3.4-1.1,5.7-4.4,5.7-8.1c0-5.8-4.7-9.6-12.6-9.6h-17.9v36.5h18.4c8.5,0,13.8-4.1,13.8-9.9
		C261.5,163.4,259.1,159.8,254,158.8z M235.9,146.9h10.2c4.7,0,7.2,1.7,7.2,4.5c0,3.2-2.6,5.1-7.4,5.1h-10.1L235.9,146.9
		L235.9,146.9L235.9,146.9z M247.5,172h-11.6v-9.6h11.8c4.4,0,7.3,1.5,7.3,4.5C255,169.7,252.3,172,247.5,172z"/>
	<path class="st1" d="M293,140.6c-11.1,0-20,8.5-20,18.9c0,10.5,9,18.9,20,18.9c11.1,0,20-8.5,20-18.9
		C312.8,148.9,304,140.6,293,140.6z M293,172.4c-7.4,0-13.1-5.8-13.1-13s5.6-13,13.1-13c7.5,0,13.1,5.8,13.1,13
		S300.5,172.4,293,172.4z"/>
	<polygon class="st1" points="341.1,147.1 341.1,177.6 334.1,177.6 334.1,147.1 321,147.1 321,141.2 354.3,141.2 354.3,147.1 	"/>
	<rect x="366.3" y="141.2" class="st1" width="6.7" height="36.5"/>
	<path class="st1" d="M468.2,152h-6.7c-0.6-3.7-3.2-6.1-8.4-6.1c-4.5,0-7.6,2-7.6,5.4c0,2.8,2.2,4.1,6.2,4.8l4.8,0.9
		c7.4,1.4,11.5,4.1,11.5,10c0,6.7-6,11.4-14.8,11.4c-9.4,0-15.7-4.8-16.3-12.6h6.7c0.6,4.3,4.4,7,10.1,7c4.7,0,7.5-1.9,7.5-5.1
		c0-1.9-1.3-3.8-5.6-4.4l-6.3-1.1c-7.4-1.4-10.9-5.1-10.9-10.2c0-6.9,5.7-11.4,14.2-11.4C459.4,140.4,467.2,143.2,468.2,152z"/>
	<path class="st1" d="M418.4,164.2c-1.7,5.1-5.7,8-11.5,8c-7.5,0-13.1-5.3-13.1-12.9c0-7.5,5.6-12.9,13.1-12.9c5.7,0,9.7,3,11.5,8h7
		c-2-8.6-9.2-14.2-18.4-14.2c-11.1,0-20,8-20,18.9c0,10.9,9,18.9,20,18.9c9.4,0,16.3-5.6,18.4-14.2h-7V164.2z"/>
</g>
</svg>
