<?xml version="1.0" encoding="UTF-8"?>
<svg version="1.1" xmlns="http://www.w3.org/2000/svg" width="2000" height="529">
<path d="M0 0 C1.65747496 -0.00967334 1.65747496 -0.00967334 3.34843427 -0.0195421 C4.56230666 -0.01644489 5.77617904 -0.01334769 7.02683544 -0.01015663 C8.31667833 -0.01468774 9.60652122 -0.01921886 10.93545026 -0.02388728 C14.51913643 -0.0361392 18.10272941 -0.03585417 21.68643177 -0.03349853 C25.55120116 -0.03309084 29.41594048 -0.04412573 33.28069592 -0.05361366 C40.85850497 -0.07024292 48.43628292 -0.07572431 56.0141087 -0.07683842 C62.18277588 -0.07778916 68.35143283 -0.08190083 74.52009678 -0.08823967 C92.03263071 -0.10586696 109.54514011 -0.11507766 127.05768297 -0.11357872 C128.47450397 -0.11345885 128.47450397 -0.11345885 129.91994762 -0.11333656 C131.33851407 -0.11321392 131.33851407 -0.11321392 132.78573843 -0.1130888 C148.06655705 -0.11227824 163.34727652 -0.13135373 178.62806652 -0.1596133 C194.34113366 -0.18844092 210.05415268 -0.20214779 225.7672469 -0.20042574 C234.5792351 -0.19976464 243.39111975 -0.20513178 252.20308399 -0.22678185 C259.71736786 -0.2451253 267.23150142 -0.24923529 274.74579815 -0.235763 C278.57045876 -0.22929539 282.39483219 -0.22888586 286.2194643 -0.2464695 C327.56145344 -0.42464502 369.82362818 7.36482158 400.98855114 36.49945641 C412.01645563 48.03439099 415.89094502 60.86764368 415.92605114 76.39789391 C415.93270794 77.44193382 415.93936474 78.48597374 415.94622326 79.56165123 C415.95629791 81.76014013 415.9610419 83.95865929 415.96071911 86.15717125 C415.96508316 89.48403022 416.00143476 92.80955098 416.03933239 96.13617516 C416.14354867 115.6263562 413.01230676 129.9737972 399.02761364 144.38226891 C392.88572851 150.44070978 386.07535053 155.02321659 378.59011364 159.25726891 C377.51374645 159.87215172 376.43737926 160.48703453 375.32839489 161.12055016 C359.62750275 169.50055294 342.10019616 174.41386525 324.59011364 177.25726891 C323.57471004 177.4255715 322.55930645 177.59387409 321.51313305 177.76727676 C308.59841716 179.64977515 295.75095195 179.52445498 282.72292614 179.48431969 C280.13931819 179.48375462 277.55570993 179.484074 274.97210217 179.4852047 C269.4404152 179.48624629 263.90877592 179.48004629 258.37710094 179.46872902 C250.37953275 179.45237755 242.38198728 179.44725622 234.38440418 179.44475304 C221.40445837 179.44039095 208.4245379 179.42712248 195.44460583 179.40814781 C182.84629981 179.38975033 170.24800071 179.37561283 157.64968395 179.36713219 C156.87129469 179.36660674 156.09290542 179.36608129 155.2909286 179.36553992 C151.38543213 179.36292958 147.4799356 179.36040223 143.57443905 179.35791612 C111.24631217 179.33722997 78.91821644 179.30204529 46.59011364 179.25726891 C46.60010639 180.75278282 46.60010639 180.75278282 46.61030102 182.27850914 C46.67123077 191.69431433 46.71614314 201.11007929 46.74555016 210.52603722 C46.76117706 215.36638191 46.78236084 220.20656689 46.816432 225.04681969 C46.84913174 229.7217318 46.86698902 234.39649071 46.87474537 239.07150841 C46.88026986 240.85121636 46.89105776 242.63091633 46.90730381 244.4105587 C46.92921949 246.91172689 46.93207472 249.41226948 46.93068981 251.91351891 C46.94147564 252.64216652 46.95226147 253.37081413 46.96337414 254.12154198 C46.92563444 260.45918387 45.24643529 265.55807807 41.90261364 271.00726891 C37.18542414 275.59696679 31.89651646 277.69975494 25.34887218 277.78740501 C24.25785702 277.77055405 24.25785702 277.77055405 23.14480114 277.75336266 C22.37129314 277.75481789 21.59778515 277.75627312 20.80083752 277.75777245 C19.17896253 277.75612447 17.55707008 277.74468785 15.93532848 277.72382164 C13.46410904 277.69475709 10.9950261 277.70325667 8.52370739 277.71625328 C6.93906164 277.71001751 5.35442259 277.70162783 3.76980114 277.69086266 C3.03840923 277.69379829 2.30701733 277.69673393 1.55346203 277.69975853 C-4.18669223 277.59491762 -8.27382502 276.24504831 -12.49191761 272.31976891 C-13.0629723 271.63914391 -13.63402699 270.95851891 -14.22238636 270.25726891 C-14.80633167 269.57664391 -15.39027699 268.89601891 -15.99191761 268.19476891 C-18.19552458 265.18377977 -18.53549048 262.63955441 -18.54410744 259.02174664 C-18.54856528 258.15334158 -18.55302312 257.28493653 -18.55761606 256.39021617 C-18.55743169 255.43556553 -18.55724733 254.48091488 -18.55705738 253.49733543 C-18.56073407 252.48361215 -18.56441076 251.46988886 -18.56819886 250.42544669 C-18.57925397 247.01236739 -18.58308264 243.59931852 -18.58688831 240.18622398 C-18.59315157 237.74558986 -18.59979825 235.30495669 -18.60680103 232.86432457 C-18.62604132 225.52843285 -18.63663122 218.1925492 -18.64552882 210.85663965 C-18.64991268 207.40136741 -18.65527926 203.94609669 -18.66051769 200.49082565 C-18.6775298 189.0034425 -18.69202361 177.51606031 -18.69926643 166.0286665 C-18.7011763 163.04781976 -18.70309664 160.06697303 -18.70505238 157.08612633 C-18.70553612 156.34525824 -18.70601986 155.60439015 -18.70651826 154.84107151 C-18.71481722 142.84151263 -18.74015193 130.84205349 -18.77263305 118.84253816 C-18.80571438 106.52074733 -18.82371618 94.19900716 -18.82691067 81.8771717 C-18.82907483 74.95978434 -18.83780943 68.04254241 -18.86337185 61.12519836 C-18.8873663 54.61714779 -18.89089778 48.10931175 -18.88061047 41.60120964 C-18.88011427 39.21313609 -18.88645935 36.82504979 -18.90016651 34.43701553 C-18.91784151 31.17506946 -18.91080004 27.91406714 -18.89763355 24.65212059 C-18.9086028 23.70862356 -18.91957204 22.76512652 -18.93087369 21.79303867 C-18.87255378 15.80231911 -17.81834067 11.25705529 -14.40988636 6.25726891 C-9.91283101 1.98506632 -6.2015539 0.00914818 0 0 Z M46.59011364 40.25726891 C46.59011364 71.27726891 46.59011364 102.29726891 46.59011364 134.25726891 C80.3319979 134.34557 114.07376937 134.41938059 147.81573454 134.46153022 C151.8057947 134.46653262 155.79585462 134.47170995 159.78591442 134.47699547 C160.5802116 134.47804471 161.37450878 134.47909395 162.19287556 134.48017499 C175.02785963 134.49754607 187.8627715 134.52906544 200.69771284 134.56588009 C213.88277028 134.60338154 227.06779011 134.62552414 240.25289869 134.63362288 C248.37866575 134.63909165 256.5042287 134.6563186 264.62993288 134.68893477 C270.21378618 134.71019653 275.79753508 134.71644281 281.38142586 134.71127442 C284.59563885 134.70873057 287.80942585 134.71466694 291.02359104 134.73409081 C310.15222303 134.84395867 329.96756104 134.52530187 345.10183239 121.01508141 C351.61921574 114.06476595 352.90067581 108.02109604 352.89089489 98.72992516 C352.89518002 97.82278267 352.89946514 96.91564018 352.90388012 95.98100853 C352.90960431 94.06895339 352.91013782 92.15687649 352.90578747 90.24481773 C352.90262753 87.33257178 352.92611042 84.42134261 352.95144176 81.50922203 C352.95371508 79.64529101 352.9544181 77.78135728 352.95339489 75.91742516 C352.96720951 74.62180405 352.96720951 74.62180405 352.98130322 73.30000877 C352.92220721 65.51094561 350.74411576 59.74666268 345.42605114 53.94867516 C333.74144308 43.18391922 317.09098368 40.09315557 301.77019787 40.13701439 C300.13317065 40.13573275 300.13317065 40.13573275 298.46307218 40.13442522 C294.80569561 40.13277794 291.14836489 40.13827954 287.49099255 40.14374352 C284.86945122 40.14402557 282.24790981 40.14386729 279.62636852 40.14330101 C273.98211346 40.14277711 268.33786997 40.14590998 262.69361782 40.15153885 C254.53301524 40.15967191 246.37241825 40.16227092 238.21181206 40.16352684 C224.9712102 40.16571452 211.7306145 40.17236691 198.49001598 40.18182945 C185.62933921 40.19101091 172.76866412 40.19808816 159.90798473 40.20233727 C159.11502025 40.20259999 158.32205577 40.20286271 157.50506206 40.2031334 C153.52692292 40.20443845 149.54878377 40.20570215 145.57064462 40.2069453 C112.57712883 40.21730906 79.58362451 40.23574262 46.59011364 40.25726891 Z " fill="#000000" transform="translate(939.4098863601685,-0.25726890563964844)"/>
<path d="M0 0 C2.04939807 -0.00464475 4.0987795 -0.01165279 6.14817017 -0.01881349 C12.54994263 -0.0407468 18.95147998 -0.04201644 25.35327148 -0.02978516 C31.92096195 -0.01763011 38.48780371 -0.04257453 45.05534965 -0.08492529 C50.74599853 -0.12024853 56.43637778 -0.13214868 62.12713212 -0.12564981 C65.50430181 -0.12204935 68.88086053 -0.12704506 72.25792885 -0.15507889 C76.01156872 -0.17983458 79.76323601 -0.16621929 83.5168457 -0.14306641 C85.16197899 -0.16599762 85.16197899 -0.16599762 86.84034729 -0.18939209 C94.4433659 -0.08606723 99.82579194 1.75697833 105.76171875 6.6015625 C110.64957124 12.3619979 111.55952886 18.05022193 111.24609375 25.51171875 C110.30024447 31.54532182 107.24638913 35.43943598 102.82421875 39.4765625 C96.47518367 43.88201541 90.59379308 43.88794115 83.12915039 43.85693359 C81.54000824 43.86236427 81.54000824 43.86236427 79.91876221 43.86790466 C77.62220685 43.87478701 75.32563518 43.87730628 73.0290699 43.87595749 C69.38242252 43.87498953 65.73606774 43.88796948 62.08946228 43.90493774 C51.72234398 43.95110984 41.35525471 43.97578556 30.98803711 43.98242188 C24.63970553 43.98746472 18.29167744 44.01186015 11.94344902 44.04774857 C9.53599312 44.05748741 7.12849515 44.05991118 4.72102547 44.05457687 C-14.70359406 44.01357886 -34.70697077 44.96484471 -49.83984375 59.02734375 C-54.68130675 64.47737054 -56.35446668 70.02482143 -56.38545227 77.18510437 C-56.39260757 78.32192154 -56.39976288 79.45873871 -56.40713501 80.63000488 C-56.40982391 81.87318481 -56.41251282 83.11636475 -56.4152832 84.3972168 C-56.4218544 85.70982986 -56.4284256 87.02244293 -56.43519592 88.37483215 C-56.45619682 92.72513617 -56.46659552 97.07544037 -56.4765625 101.42578125 C-56.48061173 102.92631358 -56.4847287 104.42684574 -56.48891258 105.9273777 C-56.50795661 112.97907156 -56.52218852 120.03075502 -56.53052455 127.08246964 C-56.54029025 135.20832538 -56.56659544 143.33390823 -56.60702544 151.45966786 C-56.63724073 157.74943602 -56.65199859 164.03912619 -56.65530556 170.32896549 C-56.65765014 174.08130283 -56.66653261 177.83334839 -56.69176674 181.58560753 C-56.71514735 185.11927 -56.71924116 188.65245063 -56.70900536 192.18617058 C-56.70827854 194.08931498 -56.7272999 195.99243545 -56.74707031 197.89547729 C-56.69389996 206.70830001 -55.14925104 213.29386921 -49.48828125 220.1640625 C-41.89570121 227.19788123 -30.43974584 232.28238756 -20.23828125 233.6015625 C-19.61558224 233.69019216 -18.99288322 233.77882181 -18.35131454 233.87013721 C-9.02137995 235.00315975 0.38696725 234.74959412 9.76855469 234.74682617 C11.7965501 234.74982173 13.82454495 234.75322517 15.85253906 234.75700378 C21.34031826 234.76580754 26.82808185 234.76818037 32.31586742 234.76881957 C35.75031635 234.76953213 39.18476134 234.77167034 42.61920929 234.77431679 C54.61756134 234.78355819 66.61590232 234.78765318 78.61425781 234.78686523 C89.77159542 234.78626475 100.92888464 234.79681388 112.08621001 234.8126089 C121.68825181 234.82571434 131.29027784 234.83104787 140.8923285 234.83040982 C146.61703588 234.83015572 152.34170021 234.83295826 158.06639862 234.84358788 C163.45417423 234.85331954 168.84186609 234.85331349 174.22964478 234.84607124 C176.19754408 234.84503168 178.16544874 234.84735056 180.13333893 234.8534317 C200.13114506 234.91118517 221.23610246 234.31401549 236.7109375 219.76953125 C241.30839616 214.66000698 242.97893752 210.12936907 243.17578125 203.20703125 C243.21445312 202.00498047 243.253125 200.80292969 243.29296875 199.56445312 C243.32390625 198.31857422 243.35484375 197.07269531 243.38671875 195.7890625 C243.42539062 194.52384766 243.4640625 193.25863281 243.50390625 191.95507812 C243.59802532 188.83738399 243.68366236 185.71969336 243.76171875 182.6015625 C242.71681778 182.60600372 241.67191681 182.61044495 240.59535217 182.61502075 C230.72363632 182.65565384 220.85193756 182.68558859 210.9801569 182.70518684 C205.9055996 182.71560136 200.83111009 182.72971785 195.7565918 182.75244141 C190.8547493 182.77425309 185.95297182 182.78614865 181.05108452 182.79131699 C179.18569351 182.79499783 177.32030586 182.80218545 175.4549427 182.81302261 C172.83194556 182.82764831 170.20921332 182.82953584 167.58618164 182.82861328 C166.82372635 182.83580383 166.06127106 182.84299438 165.27571106 182.85040283 C156.37427776 182.81676649 148.68102232 181.45008472 142.1328125 174.99609375 C136.87338169 169.25507651 135.2474102 163.94347899 135.45703125 156.1875 C136.35637141 148.55463868 139.95472645 143.80929247 145.76171875 139.01171875 C151.33262264 135.08379628 156.81899263 134.4815735 163.55453491 134.46112061 C164.68713242 134.45541046 165.81972992 134.44970032 166.98664856 134.44381714 C168.82896309 134.44214035 168.82896309 134.44214035 170.70849609 134.44042969 C172.01325394 134.43546478 173.31801178 134.43049988 174.66230774 134.42538452 C178.23055713 134.41231471 181.79878776 134.40582655 185.36705732 134.40137386 C187.59938907 134.39843522 189.83171576 134.39432901 192.06404495 134.38986969 C199.05753408 134.37621093 206.05101157 134.36653555 213.04451311 134.3626678 C221.10125893 134.35818662 229.15783513 134.34062924 237.2145294 134.3116672 C243.45421771 134.29001963 249.6938584 134.27996193 255.93358386 134.27862668 C259.65506251 134.27758114 263.37638136 134.27172658 267.09782028 134.25380707 C271.25070173 134.23419695 275.40322963 134.23862757 279.55615234 134.24511719 C280.78031357 134.2359024 282.00447479 134.22668762 283.26573181 134.2171936 C290.50036686 134.25259114 297.02062711 134.47807042 302.8203125 139.3203125 C303.27535156 139.908125 303.73039062 140.4959375 304.19921875 141.1015625 C304.67230469 141.689375 305.14539063 142.2771875 305.6328125 142.8828125 C307.96890393 146.43949149 307.90260715 149.66145393 307.9387207 153.79443359 C307.95155594 155.07361664 307.96439117 156.35279968 307.97761536 157.67074585 C307.9857893 159.07215993 307.99323177 160.47357843 308 161.875 C308.00407553 162.58417194 308.00815105 163.29334389 308.01235008 164.02400589 C308.03321402 167.78667151 308.04750733 171.54930077 308.05688477 175.31201172 C308.06787553 179.16603858 308.10218754 183.01947624 308.14205647 186.87329674 C308.16844862 189.86252779 308.17659697 192.8516242 308.18016624 195.84096146 C308.18498399 197.25929309 308.19645727 198.67762072 308.21520424 200.09583664 C308.44471307 218.62884349 302.64382398 232.49995869 289.80859375 245.7109375 C267.16579081 267.88506664 231.42041737 275.77282984 200.70341492 275.74200439 C199.75398744 275.74497552 198.80455996 275.74794664 197.82636195 275.7510078 C194.67809602 275.75960678 191.5298685 275.76119553 188.3815918 275.76269531 C186.11027446 275.76732985 183.83895789 275.77235535 181.56764221 275.77774048 C175.4182525 275.79080798 169.26887368 275.79729873 163.11947227 275.80175114 C159.26768904 275.80469189 155.41590872 275.80879861 151.56412697 275.81325531 C140.86565458 275.82535507 130.16718577 275.83573935 119.46870708 275.8391304 C118.78570675 275.83934997 118.10270641 275.83956953 117.3990091 275.83979575 C116.37227616 275.84012317 116.37227616 275.84012317 115.32480115 275.8404572 C113.9381324 275.84090064 112.55146366 275.8413472 111.16479492 275.84179688 C110.13307616 275.84212902 110.13307616 275.84212902 109.08051459 275.84246787 C97.96068737 275.84640742 86.84092602 275.86383951 75.72112419 275.8871564 C64.26007854 275.91099151 52.79907516 275.92308091 41.33800346 275.92449832 C34.92109958 275.92554039 28.5042887 275.93131944 22.08740807 275.94931793 C16.04048932 275.96594965 9.99373197 275.9678818 3.94679832 275.95917892 C1.74520939 275.95841648 -0.45638878 275.96264459 -2.65795517 275.97263718 C-39.00134489 276.12772735 -76.31413535 270.03209906 -103.23828125 243.6015625 C-104.305625 242.57095703 -104.305625 242.57095703 -105.39453125 241.51953125 C-113.58581333 233.02895232 -119.33426482 222.10604653 -119.3921814 210.20973206 C-119.40078186 208.89358414 -119.40938232 207.57743622 -119.41824341 206.22140503 C-119.42267842 204.76422159 -119.4269768 203.30703772 -119.43115234 201.84985352 C-119.4390571 200.31372392 -119.44732629 198.77759616 -119.45593262 197.24147034 C-119.48212112 192.19615443 -119.49746241 187.15083038 -119.51171875 182.10546875 C-119.51708074 180.36481153 -119.52245825 178.62415436 -119.5278511 176.88349724 C-119.54947991 169.63722864 -119.56821249 162.39096223 -119.5794735 155.14466953 C-119.59568458 144.78305841 -119.62879301 134.42182394 -119.68587434 124.06035477 C-119.7246923 116.76331611 -119.74412047 109.46637765 -119.74939406 102.16923851 C-119.75303285 97.81757018 -119.76489516 93.46630386 -119.7974968 89.114748 C-119.82778501 85.01305345 -119.83381633 80.91199972 -119.82211304 76.8102169 C-119.82189399 75.31435876 -119.83005752 73.81846908 -119.84776688 72.32271576 C-120.03942225 55.18590826 -114.33251524 43.26418612 -102.73828125 30.9453125 C-75.2089085 4.39913164 -36.4120659 -0.04364041 0 0 Z " fill="#000000" transform="translate(119.23828125,-0.6015625)"/>
<path d="M0 0 C81.51 0 163.02 0 247 0 C247 59.73 247 119.46 247 181 C165.49 181 83.98 181 0 181 C0 121.27 0 61.54 0 0 Z " fill="#000000" transform="translate(1750,348)"/>
<path d="M0 0 C81.51 0 163.02 0 247 0 C247 59.73 247 119.46 247 181 C165.49 181 83.98 181 0 181 C0 121.27 0 61.54 0 0 Z " fill="#0C4CA3" transform="translate(1448,348)"/>
<path d="M0 0 C81.51 0 163.02 0 247 0 C247 59.73 247 119.46 247 181 C165.49 181 83.98 181 0 181 C0 121.27 0 61.54 0 0 Z " fill="#00ADEF" transform="translate(1151,348)"/>
<path d="M0 0 C81.51 0 163.02 0 247 0 C247 59.73 247 119.46 247 181 C165.49 181 83.98 181 0 181 C0 121.27 0 61.54 0 0 Z " fill="#00ADEF" transform="translate(849,348)"/>
<path d="M0 0 C1.51757387 -0.00299877 3.03514698 -0.00640293 4.55271912 -0.01017761 C8.64619225 -0.01895174 12.73964444 -0.02135301 16.83312607 -0.0219934 C19.40109215 -0.02270799 21.96905304 -0.02485007 24.53701782 -0.02749062 C33.52614678 -0.03672435 42.51526099 -0.04082824 51.50439453 -0.04003906 C59.8334031 -0.03943976 68.1623466 -0.04996763 76.49133873 -0.06578273 C83.68160997 -0.07894039 90.87186017 -0.08421949 98.06214333 -0.08358365 C102.3388562 -0.08333094 106.61551123 -0.08605433 110.89221191 -0.0967617 C132.06245279 -0.1460772 152.843176 -0.16520072 173.578125 4.77026367 C174.6722168 5.0282373 175.76630859 5.28621094 176.89355469 5.55200195 C196.59160303 10.41483212 215.35854315 18.57008102 230.640625 32.14526367 C231.70216797 33.08305664 231.70216797 33.08305664 232.78515625 34.03979492 C241.37139173 42.10067756 249.44746307 53.80933267 250.1552887 65.91159058 C250.18161014 67.5750599 250.18695289 69.2389602 250.17407227 70.90258789 C250.18268784 71.82111542 250.19130341 72.73964294 250.20018005 73.68600464 C250.22268888 76.69094881 250.21612827 79.69494873 250.20703125 82.69995117 C250.21227398 84.80925774 250.21855283 86.91856196 250.22581482 89.02786255 C250.23619163 93.43738884 250.23169732 97.84659189 250.21704102 102.25610352 C250.19986896 107.88020534 250.22334405 113.50328394 250.25853062 119.12727165 C250.28059374 123.48046516 250.27904139 127.83341728 250.2707653 132.18664932 C250.26995045 134.25889329 250.27672383 136.33115583 250.29153633 138.40334702 C250.3597089 149.66635418 250.40437717 159.1478547 244.640625 169.14526367 C244.18518814 169.95494598 243.72975128 170.7646283 243.26051331 171.59884644 C230.24108736 193.65455349 203.41978927 205.83402033 179.640625 212.14526367 C162.98380749 216.06312373 146.99711009 218.29466681 129.89746094 218.30639648 C128.31446214 218.31103291 126.73146445 218.31605866 125.14846802 218.32144165 C120.86673615 218.33449486 116.58501992 218.3409976 112.30327129 218.34545231 C109.61770867 218.34839667 106.93215018 218.35250412 104.24658966 218.35695648 C95.81412648 218.37061753 87.38167291 218.38028898 78.94919944 218.38415837 C69.27221134 218.38862514 59.59536546 218.40611445 49.91842055 218.43515897 C42.40289589 218.45691877 34.88741079 218.46687033 27.37185502 218.46819949 C22.90051422 218.46923806 18.42930732 218.47493933 13.95800018 218.4930191 C-4.01881324 218.56162535 -21.63604685 218.6054844 -39.359375 215.14526367 C-41.02889725 214.84011086 -41.02889725 214.84011086 -42.73214722 214.52879333 C-45.17112392 214.07074733 -47.57320075 213.54349704 -49.984375 212.95776367 C-50.83644531 212.75199707 -51.68851563 212.54623047 -52.56640625 212.33422852 C-61.92303633 209.93806051 -70.6514592 206.27953114 -79.359375 202.14526367 C-80.54144531 201.58967773 -81.72351562 201.0340918 -82.94140625 200.46166992 C-99.95834936 191.88117987 -114.24509861 179.17587236 -121.359375 161.14526367 C-123.0251971 155.41290552 -123.64942438 150.34386282 -123.61816406 144.39355469 C-123.6216687 143.55828247 -123.62517334 142.72301025 -123.62878418 141.86242676 C-123.63752549 139.12458779 -123.63177881 136.38701113 -123.625 133.64916992 C-123.62634896 131.73160249 -123.62829142 129.81403539 -123.63079834 127.89646912 C-123.63373942 123.88618703 -123.62948516 119.87599432 -123.62011719 115.86572266 C-123.60873103 110.7437836 -123.61528333 105.62205437 -123.62726212 100.50012302 C-123.63451476 96.54256124 -123.63217705 92.58504859 -123.62700653 88.62748528 C-123.62567904 86.73977572 -123.62728594 84.8520616 -123.63196564 82.96435738 C-123.6370862 80.31824176 -123.6292433 77.67245829 -123.61816406 75.02636719 C-123.62221252 74.25777878 -123.62626099 73.48919037 -123.63043213 72.6973114 C-123.51246386 57.36796703 -116.95472515 45.91029024 -106.359375 35.14526367 C-105.84117188 34.54327148 -105.32296875 33.9412793 -104.7890625 33.32104492 C-80.61946103 6.17769668 -33.88146411 -0.013489 0 0 Z M-55.4609375 56.16479492 C-60.89119156 62.18723718 -62.65944307 66.18510611 -62.64990234 74.3828125 C-62.65661957 75.21095963 -62.66333679 76.03910675 -62.67025757 76.89234924 C-62.68924887 79.62905892 -62.6931625 82.36552345 -62.6953125 85.10229492 C-62.70174027 87.00795085 -62.70846861 88.91360579 -62.71548462 90.81925964 C-62.72746066 94.81475105 -62.73116517 98.81015598 -62.72998047 102.80566406 C-62.72977741 107.91686221 -62.75706504 113.02750355 -62.79152489 118.13856983 C-62.81380219 122.07548044 -62.81781773 126.0122573 -62.81676102 129.94922447 C-62.81911628 131.83302413 -62.82793558 133.71682751 -62.84342575 135.60056496 C-62.86310009 138.24061252 -62.85724205 140.87946294 -62.84521484 143.51953125 C-62.85645386 144.29224365 -62.86769287 145.06495605 -62.87927246 145.86108398 C-62.80444729 152.34962989 -60.72407695 156.43253099 -56.421875 161.36791992 C-40.08311315 175.94283816 -19.67528103 178.29105523 1.41577148 178.30639648 C2.90659201 178.31103217 4.39741136 178.31605782 5.88822937 178.32144165 C9.92182588 178.33449972 13.95540579 178.34099824 17.98902011 178.34545231 C20.51725466 178.34839512 23.04548481 178.35250224 25.57371712 178.35695648 C33.50747925 178.37061713 41.44123116 178.38028949 49.37500423 178.38415837 C58.48889109 178.38862881 67.6026272 178.40613545 76.71646827 178.43515897 C83.78945126 178.45688969 90.86239221 178.46686877 97.93540817 178.46819949 C102.14618596 178.46923986 106.3568218 178.47498119 110.56756401 178.4930191 C114.53788998 178.50969707 118.50797031 178.51156155 122.47831917 178.5028801 C123.92088105 178.50212 125.36345725 178.50631332 126.8059845 178.51633835 C147.56683122 178.65194293 167.52144513 174.84403602 183.81640625 161.28198242 C188.65176736 155.61829392 190.2378798 149.97560013 190.15820312 142.65307617 C190.1652124 141.84545837 190.17222168 141.03784058 190.17944336 140.20574951 C190.19691799 137.56022832 190.1854387 134.91579401 190.171875 132.27026367 C190.17457295 130.41755978 190.1784579 128.56485727 190.18347168 126.7121582 C190.18935246 122.83881075 190.18084975 118.96583354 190.16210938 115.0925293 C190.13932065 110.1428988 190.15245137 105.19413606 190.17639923 100.24453735 C190.19089573 96.42164647 190.18623361 92.59895924 190.17588806 88.77606201 C190.17323141 86.95172013 190.17645294 85.12735939 190.18580627 83.30303955 C190.19603575 80.74734959 190.18038295 78.19303913 190.15820312 75.63745117 C190.16630005 74.8933197 190.17439697 74.14918823 190.18273926 73.38250732 C190.08129687 67.03094568 187.9474415 62.03698388 183.9921875 57.07885742 C167.10017897 42.44166451 145.67400475 40.00030302 124.15087891 39.98413086 C122.70256425 39.97949338 121.2542508 39.9744675 119.80593872 39.96908569 C115.89209804 39.95604408 111.97827444 39.94953226 108.06441545 39.94507504 C105.6093616 39.94212928 103.15431226 39.93802163 100.69926071 39.93357086 C92.98975099 39.91991397 85.28025177 39.91024003 77.57073081 39.90636897 C68.72458437 39.90190075 59.87859341 39.88440287 51.03249419 39.85536838 C44.16073192 39.83361137 37.28901293 39.82365719 30.41721666 39.82232785 C26.32934906 39.82128925 22.24162793 39.81558705 18.15379715 39.79750824 C-21.32212639 38.75848726 -21.32212639 38.75848726 -55.4609375 56.16479492 Z " fill="#000000" transform="translate(1750.359375,57.854736328125)"/>
<path d="M0 0 C4.28984121 0.00513575 8.57967474 0.00034786 12.86951637 -0.00277233 C20.06757098 -0.00639025 27.26558428 -0.00167047 34.46363258 0.00790882 C42.73373874 0.01878913 51.0037462 0.01526201 59.27384996 0.00425601 C66.43031792 -0.00487935 73.58675652 -0.00607187 80.74322844 -0.00086665 C84.9929875 0.00221899 89.2427005 0.00275799 93.49245644 -0.00393963 C135.07769603 -0.06056494 135.07769603 -0.06056494 153.99634743 4.45615101 C154.90513649 4.66900745 155.81392555 4.8818639 156.75025368 5.10117054 C182.27794584 11.34551388 209.6146502 23.18097122 224.53150368 45.85458851 C229.79819041 54.53408825 232.29815429 62.16025462 232.28687477 72.31821156 C232.293592 73.19728672 232.30030922 74.07636189 232.30723 74.98207569 C232.3261454 77.87323208 232.33013127 80.76415542 232.33228493 83.65536976 C232.33871855 85.67928123 232.34544732 87.70319177 232.35245705 89.72710133 C232.36441457 93.96615216 232.36813956 98.20512161 232.3669529 102.44418812 C232.36675008 107.84961906 232.394021 113.25452208 232.42849731 118.65982819 C232.45084765 122.84055905 232.45478791 127.02116465 232.45373344 131.20194912 C232.45607837 133.19325862 232.46483868 135.18457216 232.48039818 137.17582226 C232.6179797 156.60567394 228.84788616 169.42222764 215.38306618 183.86630726 C199.1209534 200.23488231 176.97726753 208.91833155 154.87134743 214.08115101 C154.03829079 214.27620228 153.20523415 214.47125355 152.34693336 214.67221546 C138.49009631 217.68462912 124.59114764 218.56982176 110.45264626 218.54330921 C108.87994079 218.54767279 107.30723744 218.5528613 105.73453712 218.55879688 C101.51723443 218.57202368 97.30002222 218.57278389 93.08270288 218.57023358 C89.53486773 218.56915233 85.98705004 218.57407651 82.4392187 218.578839 C74.05321862 218.58987853 65.66726334 218.59040358 57.28125954 218.58432484 C48.69312359 218.57829426 40.10515185 218.59058564 31.51704389 218.61189491 C24.08710892 218.62963763 16.65722562 218.63549237 9.22727031 218.63225716 C4.81471286 218.63046368 0.40227248 218.63288271 -4.01026535 218.6469717 C-26.20687011 218.71184957 -48.10980843 218.51088914 -69.69115257 212.58115101 C-71.10666405 212.19878284 -71.10666405 212.19878284 -72.55077171 211.80869007 C-97.29213712 204.84959645 -120.7513529 192.44803938 -135.32005882 170.64365101 C-141.32253346 158.61084802 -141.58351135 147.70509334 -141.49974632 134.54208851 C-141.49990161 132.54295264 -141.50139549 130.54381647 -141.50415611 128.5446825 C-141.50553374 124.37408454 -141.49308697 120.20383314 -141.47020531 116.03329945 C-141.44178583 110.70968901 -141.44457674 105.38665189 -141.45729542 100.06299877 C-141.46427605 95.94152466 -141.45643674 91.82018121 -141.44403839 87.69872379 C-141.43954966 85.73648678 -141.43916433 83.77423561 -141.44310379 81.81199741 C-141.46400533 62.24923392 -141.46400533 62.24923392 -138.00365257 54.26865101 C-137.58986351 53.27994007 -137.17607445 52.29122913 -136.74974632 51.27255726 C-124.74146713 28.8690513 -101.64516196 16.064226 -78.1174221 8.59506702 C-74.10239092 7.39286295 -70.06499591 6.30243114 -66.00365257 5.26865101 C-64.78419945 4.9528307 -63.56474632 4.63701038 -62.30834007 4.31161976 C-41.82667022 -0.51178973 -20.89566009 -0.0329316 0 0 Z M-76.56615257 59.29990101 C-80.52516099 64.72202123 -81.44841797 69.87045404 -81.40770531 76.46371937 C-81.41456856 77.251684 -81.42143181 78.03964863 -81.42850304 78.85149097 C-81.44669533 81.437346 -81.44294451 84.02258992 -81.43724632 86.60849476 C-81.44181176 88.41778731 -81.44711841 90.22707814 -81.45313072 92.03636646 C-81.46204695 95.82146739 -81.45965568 99.60635716 -81.44969749 103.39145374 C-81.43820958 108.22786724 -81.45842406 113.06355041 -81.48761463 117.89986801 C-81.50601255 121.63438469 -81.50567703 125.36872751 -81.49997711 129.10327816 C-81.49982434 130.8857631 -81.50583224 132.66826015 -81.51826859 134.45070171 C-81.53324529 136.94898875 -81.52245374 139.44594115 -81.50536156 141.94418812 C-81.51502953 142.67118916 -81.52469749 143.39819019 -81.53465843 144.14722157 C-81.43990703 150.80344725 -79.0638222 155.86511977 -74.75365257 160.89365101 C-73.84615257 161.67740101 -72.93865257 162.46115101 -72.00365257 163.26865101 C-71.45064476 163.75076038 -70.89763695 164.23286976 -70.32787132 164.72958851 C-55.2004701 177.06953899 -35.03240748 178.41607642 -16.3361721 178.42978382 C-14.85682618 178.43441963 -13.37748144 178.4394453 -11.89813805 178.44482899 C-7.89546515 178.45788699 -3.89280897 178.46438572 0.10988188 178.46883965 C2.61936316 178.47178284 5.12883999 178.47589007 7.63831902 178.48034382 C15.51495206 178.4940053 23.39157481 178.50367689 31.26821887 178.50754571 C40.31304564 178.51201445 49.35772039 178.52951282 58.40250099 178.5585463 C65.42369538 178.58028904 72.44484742 178.59025675 79.46607506 178.59158683 C83.64502716 178.59262648 87.82383613 178.59835174 92.0027523 178.61640644 C130.14432984 179.23741509 130.14432984 179.23741509 163.99634743 163.26865101 C166.32550936 160.77111592 168.25844353 158.20552693 169.99634743 155.26865101 C170.34347786 154.73346851 170.69060829 154.19828602 171.04825783 153.64688587 C172.40453265 150.24473901 172.29124012 146.93053719 172.28687477 143.32236195 C172.293592 142.52508183 172.30030922 141.7278017 172.30723 140.90636158 C172.32621916 138.27185286 172.33013501 135.6375989 172.33228493 133.00302601 C172.33871354 131.16702642 172.34544195 129.33102785 172.35245705 127.4950304 C172.36443304 123.64496964 172.36813767 119.79499861 172.3669529 115.94492054 C172.36674999 111.02438217 172.39402111 106.10442321 172.42849731 101.18402195 C172.45079821 97.39032853 172.45478942 93.59677367 172.45373344 89.80302143 C172.45608579 87.9898247 172.46488861 86.17662394 172.48039818 84.36349201 C172.50011774 81.81942896 172.49419676 79.27660357 172.48218727 76.7325182 C172.49342628 75.99145329 172.5046653 75.25038837 172.51624489 74.48686695 C172.43504965 67.67694523 170.05554435 62.59184754 165.55884743 57.51865101 C148.66934727 42.68884599 128.33603949 40.12379049 106.62012672 40.1075182 C105.17195957 40.1028821 103.72379361 40.09785639 102.27562904 40.09247303 C98.35759705 40.0794165 94.43958215 40.07291641 90.52153182 40.06846237 C88.06430573 40.06551851 85.60708417 40.06141114 83.14986038 40.0569582 C75.43500788 40.04329617 67.72016589 40.03362524 60.00530213 40.02975631 C51.15065561 40.02528953 42.29616453 40.00780065 33.44156522 39.97875571 C26.56557686 39.95699806 19.68963176 39.94704446 12.81360942 39.94571519 C8.72237352 39.94467645 4.63128396 39.93897151 0.54008484 39.92089558 C-41.21281467 39.29785186 -41.21281467 39.29785186 -76.56615257 59.29990101 Z " fill="#000000" transform="translate(629.0036525726318,57.73134899139404)"/>
<path d="M0 0 C1.87712677 -0.01210762 1.87712677 -0.01210762 3.79217529 -0.02445984 C6.4174261 -0.03819512 9.04269397 -0.04896368 11.66796875 -0.05688477 C14.34462881 -0.06579661 17.02077849 -0.08682172 19.69726562 -0.1184082 C23.59000137 -0.16104157 27.48205998 -0.17723987 31.375 -0.1875 C32.56474426 -0.20500809 33.75448853 -0.22251617 34.98028564 -0.24055481 C42.85058492 -0.2200309 48.27377222 0.7308121 54.4453125 5.94921875 C58.6475655 11.12309094 60.68443774 15.24515507 60.421875 22.05078125 C59.683106 27.68071056 57.5004998 32.26026769 53.421875 36.23828125 C46.5743558 40.51368142 40.98453113 40.79997967 33.0234375 40.7421875 C31.83446869 40.75160873 30.64549988 40.76102997 29.42050171 40.77073669 C25.62911705 40.79929735 21.83835818 40.80247107 18.046875 40.80078125 C-20.65556937 40.5020658 -20.65556937 40.5020658 -54.390625 57.61328125 C-60.76635591 65.26415834 -61.14998536 71.7602763 -61.06054688 81.41210938 C-61.06655253 83.41534682 -61.07255924 85.41858427 -61.07860565 87.42182159 C-61.08122488 89.5616504 -61.07402402 91.7012443 -61.0639801 93.84104919 C-61.04354513 98.31346941 -61.05366273 102.78551032 -61.0682373 107.25793457 C-61.09492937 116.75141801 -61.08827547 126.24477643 -61.078125 135.73828125 C-61.06716446 145.98942684 -61.06201345 156.24037487 -61.09541941 166.49148703 C-61.10874944 170.93183729 -61.10289631 175.37161228 -61.08205414 179.8119278 C-61.07521316 181.91128635 -61.07751051 184.01039935 -61.08384705 186.10975647 C-61.09149663 188.66134084 -61.08505991 191.21302482 -61.06141663 193.76451111 C-61.11742486 201.58391907 -61.88159427 207.4991801 -67.61328125 213.296875 C-68.28230469 213.75191406 -68.95132812 214.20695313 -69.640625 214.67578125 C-70.31222656 215.14886719 -70.98382812 215.62195313 -71.67578125 216.109375 C-77.02095437 219.28135658 -83.16238017 218.49860852 -89.18237305 218.53344727 C-90.56236047 218.54492964 -91.9423048 218.56532227 -93.32202148 218.5949707 C-101.45626451 218.7696174 -107.71024705 218.85849006 -114.578125 214.23828125 C-118.28468597 210.67471939 -121.3319251 206.78452445 -121.83539391 201.57756042 C-121.83874559 200.55705093 -121.84209728 199.53654144 -121.84555054 198.48510742 C-121.85408051 197.31055496 -121.86261047 196.1360025 -121.87139893 194.92585754 C-121.87049255 193.64063705 -121.86958618 192.35541656 -121.86865234 191.03125 C-121.87463844 189.66098159 -121.88144418 188.29071655 -121.88900757 186.92045593 C-121.90667653 183.19891334 -121.9113636 179.47746274 -121.91263914 175.75588226 C-121.91406194 173.42670235 -121.91833419 171.09754571 -121.92363358 168.76837158 C-121.94214385 160.63023397 -121.95030382 152.49216186 -121.94873047 144.35400391 C-121.94753202 136.79005571 -121.96857322 129.22639424 -122.0002178 121.6625185 C-122.02646639 115.15443498 -122.03709403 108.64644451 -122.03581965 102.13830853 C-122.0353121 98.25790523 -122.04087851 94.37775619 -122.06217575 90.49740601 C-122.08170088 86.8397804 -122.08158665 83.18264757 -122.06714249 79.52500343 C-122.06409097 77.56162217 -122.08063462 75.59824011 -122.09802246 73.63493347 C-121.99014671 58.24101227 -116.35616924 46.20702067 -105.78125 35.25390625 C-99.15315435 28.74236562 -91.77924619 23.61473415 -83.578125 19.23828125 C-82.63308105 18.73385498 -82.63308105 18.73385498 -81.66894531 18.21923828 C-56.39451725 5.01127133 -28.28919807 0.17684667 0 0 Z " fill="#000000" transform="translate(1527.578125,57.76171875)"/>
</svg>
